<svg width="150" height="149" viewBox="0 0 150 149" fill="none" xmlns="http://www.w3.org/2000/svg">
<path d="M75.0125 0.0175781C33.956 0.0175781 0.67334 33.3002 0.67334 74.3567C0.67334 115.413 33.956 148.696 75.0125 148.696C116.069 148.696 149.352 115.413 149.352 74.3567C149.352 33.3002 116.069 0.0175781 75.0125 0.0175781ZM75.0125 134.308C41.88 134.308 15.0616 107.494 15.0616 74.3567C15.0616 41.2245 41.8749 14.4058 75.0125 14.4058C108.145 14.4058 134.963 41.2191 134.963 74.3567C134.963 107.489 108.15 134.308 75.0125 134.308ZM107.191 104.013C104.31 106.924 93.5436 116.422 75.9975 116.422C51.2887 116.422 33.8867 98.0095 33.8867 73.9865C33.8867 50.2603 51.9545 32.2004 75.781 32.2004C92.4267 32.2004 102.381 40.1799 105.035 42.6256C105.659 43.1992 106.059 43.9752 106.165 44.8159C106.272 45.6565 106.077 46.5077 105.615 47.2184L100.173 55.6454C99.0219 57.429 96.5864 57.8282 94.9279 56.521C92.3515 54.4899 85.3915 49.7651 76.4306 49.7651C61.9516 49.7651 53.0749 60.3555 53.0749 73.7701C53.0749 86.2366 61.1347 98.8572 76.5388 98.8572C86.3279 98.8572 93.5778 93.1501 96.2405 90.6963C97.8202 89.2404 100.316 89.4856 101.582 91.2173L107.537 99.3616C108.044 100.05 108.289 100.898 108.225 101.751C108.162 102.605 107.795 103.407 107.191 104.013Z" fill="black"/>
</svg>
