<svg width="282" height="260" viewBox="0 0 282 260" fill="none" xmlns="http://www.w3.org/2000/svg">
<path d="M141.414 0.0805664C166.825 0.0805664 190.327 5.02154 211.921 14.9035C233.515 24.7855 250.586 38.2228 263.135 55.2156C275.683 72.2084 281.957 90.7436 281.957 110.821C281.957 130.899 275.683 149.46 263.135 166.505C250.586 183.55 233.541 197.014 211.999 206.896C190.458 216.778 166.929 221.719 141.414 221.719C133.362 221.719 125.049 221.144 116.474 219.993C79.2465 245.822 59.4303 258.894 57.0252 259.207C55.8749 259.626 54.7769 259.573 53.7312 259.051C53.3129 258.737 52.9992 258.319 52.7901 257.796C52.5809 257.273 52.4764 256.802 52.4764 256.384V255.757C53.1038 251.678 57.8618 234.686 66.7503 204.778C46.5681 194.739 30.5426 181.433 18.6738 164.858C6.80501 148.284 0.870605 130.271 0.870605 110.821C0.870605 90.7436 7.14486 72.2084 19.6934 55.2156C32.2419 38.2228 49.3131 24.7855 70.907 14.9035C92.5009 5.02154 116.003 0.0805664 141.414 0.0805664Z" fill="black"/>
</svg>
